<svg width="46" height="46" viewBox="0 0 46 46" xmlns="http://www.w3.org/2000/svg">
    <g fill="none" fill-rule="evenodd">
        <path d="M34.2 31.2V33a1.196 1.196 0 0 1-1.2 1.2H13a1.196 1.196 0 0 1-1.2-1.2v-1.8h22.4z" stroke="#111" stroke-width="1.6"/>
        <path d="M35.2 11.8V30a1.196 1.196 0 0 1-1.2 1.2H12a1.196 1.196 0 0 1-1.2-1.2V11.8h24.4z" stroke="#111" stroke-width="1.6"/>
        <g fill="#111">
            <path d="M18.5 21.2h9v1.6h-9z"/>
            <path d="M23.8 17.5v9h-1.6v-9z"/>
        </g>
        <rect fill="#111" x="16" y="8.7" width="1.6" height="6" rx=".8"/>
        <rect fill="#111" x="28.4" y="8.7" width="1.6" height="6" rx=".8"/>
    </g>
</svg>
