<svg width="46" height="46" viewBox="0 0 46 46" xmlns="http://www.w3.org/2000/svg">
    <g fill-rule="nonzero" stroke="#111" stroke-width="1.6" fill="none">
        <path d="m25.05 10.2.58 2.478c1.052.533 1.785.838 2.476 1.223l2.487-1.44 2.886 3.01-1.396 2.078c.397 1.097.697 1.83.915 2.596l2.802.783v4.127l-2.48.563c-.533 1.054-.837 1.789-1.219 2.483l1.364 2.438-2.937 2.936-2.09-1.404c-1.083.401-1.816.706-2.583.927l-.783 2.802h-4.123l-.579-2.478c-1.052-.533-1.785-.838-2.476-1.223l-2.444 1.379-2.937-2.938 1.404-2.09c-.397-1.096-.697-1.83-.915-2.595l-2.802-.783v-4.127l2.48-.563c.533-1.054.837-1.789 1.219-2.483l-1.43-2.48 2.942-2.941 2.15 1.438c1.089-.398 1.821-.699 2.584-.914l.783-2.802h4.123z" stroke-linejoin="round"/>
        <path d="M23 17.75a5.25 5.25 0 1 0 0 10.5 5.25 5.25 0 0 0 0-10.5z"/>
    </g>
</svg>
